<svg xmlns="http://www.w3.org/2000/svg" viewBox="0 0 779 811.7">
  <title>PP logo centre punch black</title>
  <g id="Layer_3" data-name="Layer 3">
    <path d="M367.54,382.57v9.54a18.22,18.22,0,0,1-18.09,18.31H331.81v-46.1h17.64A18.31,18.31,0,0,1,367.54,382.57ZM749.21,548.12,491.68,482.44l152.7,217.45L446.9,522.09l34.19,263.55L388.83,536.43,296.62,785.64l34.14-263.55L133.28,699.89,286,482.44,28.5,548.12l236.3-121.6L6.28,365,272,367.13,71.68,192.54,306,317.94,209.77,70.22,358.94,290.09l29.89-264,29.94,264L567.94,70.22,471.71,317.94,706,192.54,505.68,367.13,771.43,365,512.91,426.52ZM389.65,382.57a40.5,40.5,0,0,0-40.2-40.42H309V483.49h22.78V432.54h17.64a40.36,40.36,0,0,0,40.2-40.43Zm89,0a40.51,40.51,0,0,0-40.21-40.42H398V483.49H420.7V432.54h17.7a40.37,40.37,0,0,0,40.21-40.43Zm-22.17,0v9.54a18.17,18.17,0,0,1-18,18.31H420.7v-46.1h17.7A18.27,18.27,0,0,1,456.44,382.57Z"/>
  </g>
</svg>
