<svg xmlns="http://www.w3.org/2000/svg" viewBox="0 0 2928.88 540">
  <defs>
    <style>
      .cls-1 {
        fill: #e94e25;
      }
    </style>
  </defs>
  <title>PP logo horizontal orange</title>
  <g id="Layer_3" data-name="Layer 3">
    <g>
      <g>
        <g>
          <path class="cls-1" d="M677.51,145.49H604.06V402.37H645.4V309.73h32.11c40.23,0,73.07-32.85,73.07-73.44V218.94C750.58,178.71,717.74,145.49,677.51,145.49Zm32.85,90.8a33,33,0,0,1-32.85,33.21H645.4V185.72h32.11c18.09,0,32.85,15.13,32.85,33.22Z"/>
          <path class="cls-1" d="M869.22,303.83A73.43,73.43,0,0,0,922,233.33V218.57a73.25,73.25,0,0,0-73.08-73.08H775.47V402.37H816.8V306.78h3.7l72.34,95.59h50.93ZM816.8,266.55V185.72h32.12a32.92,32.92,0,0,1,32.84,32.85v14.76c0,18.09-14.76,33.22-32.84,33.22Z"/>
          <path class="cls-1" d="M974.14,145.12V402h47.24l102.85-.74V359.93l-102.85.73v-66.8l82.55-.37V252.16l-82.55.73v-66.8l103.22-.74V144Z"/>
          <path class="cls-1" d="M1146.57,145.49v41.34h65.24V402.37h41.33V186.83h65.24V145.49Z"/>
          <path class="cls-1" d="M1339.29,145.49v41.34h65.24V402.37h41.33V186.83h65.24V145.49Z"/>
        </g>
        <polygon class="cls-1" points="1645.35 144.69 1608.43 235.68 1571.88 144.69 1527.13 144.69 1587.92 294.98 1587.92 404.24 1629.31 404.24 1629.31 294.98 1690.47 144.69 1645.35 144.69"/>
      </g>
      <g>
        <g>
          <path class="cls-1" d="M1864.18,145.09h-73.44V402h41.34V309.32h32.1c40.24,0,73.08-32.85,73.08-73.45V218.53C1937.26,178.29,1904.42,145.09,1864.18,145.09ZM1897,235.87a33,33,0,0,1-32.86,33.22h-32.1V185.31h32.1c18.1,0,32.86,15.14,32.86,33.22Z"/>
          <path class="cls-1" d="M2078,144.71v186a30.08,30.08,0,0,1-29.9,30.26h-14.31a30.39,30.39,0,0,1-30.26-30.26v-186h-41.34v186c0,39.12,32.48,71.23,71.6,71.23h14.31a71.51,71.51,0,0,0,71.23-71.23v-186Z"/>
          <polygon class="cls-1" points="2159.76 145.08 2159.76 401.96 2200.72 401.96 2200.72 243.26 2274.54 401.96 2315.51 401.96 2315.51 145.08 2274.17 145.08 2274.17 303.42 2201.09 145.08 2159.76 145.08"/>
          <path class="cls-1" d="M2345.31,214.78V329.57c0,39.12,32.15,71.23,71.32,71.23h7.71c38.44,0,70.22-30.63,71.33-68.65h-41.39c-1.11,15.13-14.05,27.31-29.94,27.31h-7.71a30,30,0,0,1-29.93-29.89V214.78a30.1,30.1,0,0,1,29.93-30.26h7.71a30.43,30.43,0,0,1,30.31,30.26v19.93h41V214.78c0-39.12-32.16-71.23-71.33-71.23h-7.71C2377.46,143.55,2345.31,175.66,2345.31,214.78Z"/>
          <polygon class="cls-1" points="2575.7 293.88 2648.04 293.88 2648.04 402.01 2695.29 402.01 2695.29 144.29 2648.04 144.29 2648.04 252.41 2575.7 252.41 2575.7 144.29 2528.46 144.29 2528.46 402.01 2575.7 402.01 2575.7 293.88"/>
        </g>
        <polygon class="cls-1" points="2832.79 143.83 2795.87 234.82 2759.32 143.83 2714.57 143.83 2775.36 294.12 2775.36 403.38 2816.75 403.38 2816.75 294.12 2877.91 143.83 2832.79 143.83"/>
      </g>
      <polygon class="cls-1" points="280.54 42.1 298.48 200.55 388.01 68.59 330.26 217.23 470.86 141.99 350.65 246.77 510.11 245.49 354.98 282.4 496.77 355.37 342.25 315.96 433.89 446.46 315.38 339.76 335.88 497.9 280.54 348.35 225.19 497.9 245.69 339.76 127.18 446.46 218.82 315.96 64.31 355.37 206.09 282.4 50.97 245.49 210.42 246.77 90.22 141.99 230.81 217.23 173.06 68.59 262.59 200.55 280.54 42.1"/>
    </g>
  </g>
</svg>
