<svg xmlns="http://www.w3.org/2000/svg" viewBox="0 0 1920 1080">
  <defs>
    <style>
      .cls-1 {
        fill: #fff;
      }
    </style>
  </defs>
  <title>PP logo white</title>
  <g id="Layer_3" data-name="Layer 3">
    <path class="cls-1" d="M398.56,294.7l20.36,179.73L520.46,324.75,455,493.35,614.44,408,478.09,526.85,659,525.4,483,567.27,643.83,650l-175.27-44.7,104,148-134.42-121L461.34,811.7,398.56,642.07,335.79,811.7,359,632.33l-134.41,121,103.94-148L153.3,650l160.82-82.76-176-41.87L319,526.85,182.68,408l159.48,85.35-65.5-168.6L378.21,474.43ZM692.83,447.83v85.73h38.25V447.83H760.8a67.85,67.85,0,0,0,67.62-68V363.82c0-37.23-30.4-68-67.62-68h-68Zm68-114.75c16.73,0,30.39,14,30.39,30.74v16.05a30.54,30.54,0,0,1-30.39,30.74H731.08V333.08Zm90.65,200.48H889.7V445.1h3.41l66.94,88.46h47.13l-69-91.19A67.92,67.92,0,0,0,987,377.14V363.48a67.77,67.77,0,0,0-67.62-67.62h-68Zm68-200.48a30.46,30.46,0,0,1,30.39,30.4v13.66c0,16.74-13.66,30.74-30.39,30.74H889.7v-74.8Zm115.87-37.56v237.7H1079l95.17-.69V494.28L1079,495V433.15l76.38-.34V394.56l-76.38.68V333.43l95.51-.69V294.49Zm159.56.34v38.25h60.37V533.56h38.25V334.11h60.37V295.86Zm178.33,0v38.25h60.37V533.56h38.25V334.11h60.37V295.86ZM692.83,722.23V808h38.25V722.23H760.8c37.22,0,67.62-30.4,67.62-68v-16c0-37.23-30.4-68-67.62-68h-68Zm68-114.75c16.73,0,30.39,14,30.39,30.74v16A30.53,30.53,0,0,1,760.8,685H731.08V607.48Zm197.81-37.57V742a27.84,27.84,0,0,1-27.67,28H917.7a28.12,28.12,0,0,1-28-28V569.91H851.45V742c0,36.2,30,65.91,66.25,65.91h13.24A66.18,66.18,0,0,0,996.86,742V569.91Zm75.69.34V808h37.91V661.1L1140.51,808h37.91V570.25h-38.25V716.76l-67.62-146.51Zm171.7,64.5V741c0,36.2,29.75,65.92,66,65.92h7.13c35.57,0,65-28.35,66-63.53h-38.3a27.61,27.61,0,0,1-27.7,25.28H1272A27.79,27.79,0,0,1,1244.3,741V634.75a27.85,27.85,0,0,1,27.7-28h7.13a28.14,28.14,0,0,1,28,28v18.44h38V634.75c0-36.2-29.75-65.91-66-65.91H1272C1235.75,568.84,1206,598.55,1206,634.75ZM1419.2,708h66.93V808h43.72V569.52h-43.72V669.57H1419.2V569.52h-43.72V808h43.72Zm237.18-412.83-34.16,84.19-33.82-84.19H1547l56.25,139.06V535.29h38.3V434.18l56.59-139.06Zm.71,274-34.17,84.19-33.81-84.19H1547.7l56.24,139.06V809.27h38.31V708.16l56.59-139.06Z"/>
  </g>
</svg>
